<?xml version="1.0" encoding="UTF-8" standalone="no"?>
<svg
   version="1.1"
   id="svg1"
   width="1333.3339"
   height="1333.3337"
   viewBox="0 0 1333.3339 1333.3338"
   xmlns="http://www.w3.org/2000/svg"
   xmlns:svg="http://www.w3.org/2000/svg">
  <g
     id="layer-MC0"
     transform="translate(9.2196369e-4,-1.9024263e-5)">
    <path
       id="path2"
       d="m 379.716,606.629 c 73.059,58.538 181.708,47.229 234.637,-31.543 v 0 c 38.056,-54.945 34.166,-131.824 -6.963,-184.433 v 0 c -13.602,-18.077 -31.453,-33.097 -51.791,-44.9 v 0 c 22.552,6.84 43.555,19.853 60.764,37 v 0 c 56.956,57.269 61.688,149.663 12.775,213.678 v 0 c -32.126,42.54 -81.73,64.871 -131.013,64.874 v 0 c -43.914,0.003 -87.57,-17.723 -118.409,-54.676"
       transform="matrix(1.3333333,0,0,-1.3333333,0,1333.3333)"
       style="fill:#0B5CAD;stroke:none" />
    <path
       id="path4"
       d="M 376.608,593.388 C 323.647,538.006 322.138,449.835 372.25,391.882 v 0 c 55.798,-67.313 164.288,-72.532 221.839,-5.342 v 0 C 526.49,336.572 429.248,348.305 381.846,419.033 v 0 c -40.889,59.13 -28.454,141.711 24.224,189.831 v 0 c 7.619,7.068 16.033,13.418 25.03,19.155 v 0 c -20.301,-6.627 -39.169,-18.753 -54.492,-34.631"
       transform="matrix(1.3333333,0,0,-1.3333333,0,1333.3333)"
       style="fill:#0B5CAD;stroke:none" />
    <path
       id="path6"
       d="m 528.952,566.943 v -51.038 h -63.711 v 51.038 h -38.363 v -51.038 -38.363 -51.037 h 38.363 v 51.037 h 63.711 v -51.037 h 38.365 v 51.037 38.363 51.038 z"
       transform="matrix(1.3333333,0,0,-1.3333333,0,1333.3333)"
       style="fill:#0B5CAD;stroke:none" />
  </g>
</svg>
