<?xml version="1.0" encoding="UTF-8"?>
<svg
  xmlns="http://www.w3.org/2000/svg"
  width="1333.3339"
  height="1333.3337"
  viewBox="0 0 1333.3339 1333.3338"
  role="img"
  aria-label="Hjelpeportalen logo"
>
  <g transform="translate(0,-0.000019024263)">
    <path
      d="m 506.288,524.83864 c 97.412,78.05067 242.27733,62.972 312.84933,-42.05733 50.74133,-73.26 45.55467,-175.76533 -9.284,-245.91067 -18.136,-24.10267 -41.93733,-44.12933 -69.05467,-59.86667 30.06933,9.12 58.07333,26.47067 81.01867,49.33333 75.94133,76.35867 82.25067,199.55067 17.03333,284.904 -42.83467,56.72 -108.97333,86.49467 -174.684,86.49867 -58.552,0.004 -116.76,-23.63067 -157.87867,-72.90133"
      transform="matrix(1.3333333,0,0,-1.3333333,0,1333.3333)"
      fill="#0B5CAD"
    />
    <path
      d="M 502.144,507.85133 C 431.52933,434.67467 429.51733,317.78267 496.33333,240.50933 c 74.39733,-89.75066 219.05067,-96.71 295.78533,-7.12266 -90.132,66.62266 -219.72066,50.97866 -282.92266,145.012  -54.51867,78.84 -37.93867,188.948 32.29866,253.108 10.15867,9.424 21.37734,17.891 33.37334,25.54 -27.068,-8.836 -52.22534,-25.004 -72.65867,-46.19667"
      transform="matrix(1.3333333,0,0,-1.3333333,0,1333.3333)"
      fill="#0B5CAD"
    />
    <path
      d="m 705.26933,489.25733 v -68.05066 h -84.948 v 68.05066 h -51.15067 v -68.05066 -51.15067 -68.04933 h 51.15067 v 68.04933 h 84.948 v -68.04933 h 51.15333 v 68.04933 51.15067 68.05066 z"
      transform="matrix(1.3333333,0,0,-1.3333333,0,1333.3333)"
      fill="#0B5CAD"
    />
  </g>
</svg>
